<mxfile host="app.diagrams.net" modified="2022-02-09T18:26:20.858Z" agent="5.0 (Windows NT 10.0; Win64; x64) AppleWebKit/537.36 (KHTML, like Gecko) Chrome/96.0.4664.45 Safari/537.36" etag="u4kZhlRNdb1cKmTXzd0d" version="16.5.3" type="github">
  <diagram id="auJW9YRZv4Jfnwr8kw9I" name="Page-1">
    <mxGraphModel dx="852" dy="473" grid="1" gridSize="10" guides="1" tooltips="1" connect="1" arrows="1" fold="1" page="1" pageScale="1" pageWidth="827" pageHeight="1169" math="0" shadow="0">
      <root>
        <mxCell id="0" />
        <mxCell id="1" parent="0" />
        <mxCell id="AM_tNluyqcjuR_lMav4c-26" style="edgeStyle=orthogonalEdgeStyle;rounded=0;orthogonalLoop=1;jettySize=auto;html=1;exitX=0;exitY=0;exitDx=0;exitDy=0;" edge="1" parent="1" source="AM_tNluyqcjuR_lMav4c-2">
          <mxGeometry relative="1" as="geometry">
            <mxPoint x="220" y="10" as="targetPoint" />
            <Array as="points">
              <mxPoint x="220" y="90" />
              <mxPoint x="220" y="90" />
            </Array>
          </mxGeometry>
        </mxCell>
        <mxCell id="AM_tNluyqcjuR_lMav4c-2" value="" style="whiteSpace=wrap;html=1;aspect=fixed;" vertex="1" parent="1">
          <mxGeometry x="220" y="40" width="480" height="480" as="geometry" />
        </mxCell>
        <mxCell id="AM_tNluyqcjuR_lMav4c-3" value="verifier disponible" style="rounded=1;whiteSpace=wrap;html=1;" vertex="1" parent="1">
          <mxGeometry x="350" y="30" width="120" height="30" as="geometry" />
        </mxCell>
        <mxCell id="AM_tNluyqcjuR_lMav4c-5" value="organiser evenement" style="rounded=1;whiteSpace=wrap;html=1;" vertex="1" parent="1">
          <mxGeometry x="354" y="80" width="120" height="30" as="geometry" />
        </mxCell>
        <mxCell id="AM_tNluyqcjuR_lMav4c-6" value="enregistrer emprunte" style="rounded=1;whiteSpace=wrap;html=1;" vertex="1" parent="1">
          <mxGeometry x="354" y="130" width="120" height="30" as="geometry" />
        </mxCell>
        <mxCell id="AM_tNluyqcjuR_lMav4c-7" value="emprunter cd rom" style="rounded=1;whiteSpace=wrap;html=1;" vertex="1" parent="1">
          <mxGeometry x="354" y="320" width="120" height="30" as="geometry" />
        </mxCell>
        <mxCell id="AM_tNluyqcjuR_lMav4c-8" value="authentifier" style="rounded=1;whiteSpace=wrap;html=1;" vertex="1" parent="1">
          <mxGeometry x="354" y="230" width="120" height="30" as="geometry" />
        </mxCell>
        <mxCell id="AM_tNluyqcjuR_lMav4c-9" value="inscrire" style="rounded=1;whiteSpace=wrap;html=1;fontStyle=1" vertex="1" parent="1">
          <mxGeometry x="354" y="265" width="120" height="35" as="geometry" />
        </mxCell>
        <mxCell id="AM_tNluyqcjuR_lMav4c-10" value="reserver cd rom" style="rounded=1;whiteSpace=wrap;html=1;" vertex="1" parent="1">
          <mxGeometry x="354" y="180" width="120" height="30" as="geometry" />
        </mxCell>
        <mxCell id="AM_tNluyqcjuR_lMav4c-11" value="payer cotisation" style="rounded=1;whiteSpace=wrap;html=1;" vertex="1" parent="1">
          <mxGeometry x="354" y="360" width="120" height="30" as="geometry" />
        </mxCell>
        <mxCell id="AM_tNluyqcjuR_lMav4c-14" value="rendre cd rom" style="rounded=1;whiteSpace=wrap;html=1;" vertex="1" parent="1">
          <mxGeometry x="354" y="400" width="120" height="30" as="geometry" />
        </mxCell>
        <mxCell id="AM_tNluyqcjuR_lMav4c-16" value="adherent" style="shape=umlActor;verticalLabelPosition=bottom;verticalAlign=top;html=1;outlineConnect=0;" vertex="1" parent="1">
          <mxGeometry x="750" y="240" width="30" height="60" as="geometry" />
        </mxCell>
        <mxCell id="AM_tNluyqcjuR_lMav4c-17" value="employer" style="shape=umlActor;verticalLabelPosition=bottom;verticalAlign=top;html=1;outlineConnect=0;" vertex="1" parent="1">
          <mxGeometry x="50" y="240" width="30" height="60" as="geometry" />
        </mxCell>
        <mxCell id="AM_tNluyqcjuR_lMav4c-18" value="" style="endArrow=none;html=1;rounded=0;entryX=0;entryY=0.5;entryDx=0;entryDy=0;" edge="1" parent="1" source="AM_tNluyqcjuR_lMav4c-17" target="AM_tNluyqcjuR_lMav4c-5">
          <mxGeometry relative="1" as="geometry">
            <mxPoint x="130" y="284.5" as="sourcePoint" />
            <mxPoint x="290" y="284.5" as="targetPoint" />
          </mxGeometry>
        </mxCell>
        <mxCell id="AM_tNluyqcjuR_lMav4c-19" value="1" style="resizable=0;html=1;align=right;verticalAlign=bottom;" connectable="0" vertex="1" parent="AM_tNluyqcjuR_lMav4c-18">
          <mxGeometry x="1" relative="1" as="geometry" />
        </mxCell>
        <mxCell id="AM_tNluyqcjuR_lMav4c-22" value="" style="endArrow=none;html=1;rounded=0;entryX=0;entryY=0.75;entryDx=0;entryDy=0;" edge="1" parent="1" target="AM_tNluyqcjuR_lMav4c-6">
          <mxGeometry relative="1" as="geometry">
            <mxPoint x="90" y="260" as="sourcePoint" />
            <mxPoint x="310" y="250" as="targetPoint" />
          </mxGeometry>
        </mxCell>
        <mxCell id="AM_tNluyqcjuR_lMav4c-23" value="1" style="resizable=0;html=1;align=right;verticalAlign=bottom;" connectable="0" vertex="1" parent="AM_tNluyqcjuR_lMav4c-22">
          <mxGeometry x="1" relative="1" as="geometry" />
        </mxCell>
        <mxCell id="AM_tNluyqcjuR_lMav4c-35" value="" style="endArrow=none;html=1;rounded=0;exitX=1;exitY=0.5;exitDx=0;exitDy=0;" edge="1" parent="1" source="AM_tNluyqcjuR_lMav4c-14">
          <mxGeometry relative="1" as="geometry">
            <mxPoint x="590" y="280" as="sourcePoint" />
            <mxPoint x="750" y="280" as="targetPoint" />
          </mxGeometry>
        </mxCell>
        <mxCell id="AM_tNluyqcjuR_lMav4c-36" value="N" style="resizable=0;html=1;align=right;verticalAlign=bottom;" connectable="0" vertex="1" parent="AM_tNluyqcjuR_lMav4c-35">
          <mxGeometry x="1" relative="1" as="geometry" />
        </mxCell>
        <mxCell id="AM_tNluyqcjuR_lMav4c-37" value="" style="endArrow=none;html=1;rounded=0;exitX=1;exitY=0.5;exitDx=0;exitDy=0;" edge="1" parent="1" source="AM_tNluyqcjuR_lMav4c-3">
          <mxGeometry relative="1" as="geometry">
            <mxPoint x="510" y="269.5" as="sourcePoint" />
            <mxPoint x="750" y="280" as="targetPoint" />
          </mxGeometry>
        </mxCell>
        <mxCell id="AM_tNluyqcjuR_lMav4c-39" value="" style="endArrow=none;html=1;rounded=0;exitX=1;exitY=0.75;exitDx=0;exitDy=0;" edge="1" parent="1" source="AM_tNluyqcjuR_lMav4c-9">
          <mxGeometry relative="1" as="geometry">
            <mxPoint x="590" y="279.5" as="sourcePoint" />
            <mxPoint x="750" y="279.5" as="targetPoint" />
          </mxGeometry>
        </mxCell>
        <mxCell id="AM_tNluyqcjuR_lMav4c-40" value="1" style="resizable=0;html=1;align=right;verticalAlign=bottom;" connectable="0" vertex="1" parent="AM_tNluyqcjuR_lMav4c-39">
          <mxGeometry x="1" relative="1" as="geometry" />
        </mxCell>
        <mxCell id="AM_tNluyqcjuR_lMav4c-41" value="" style="endArrow=none;html=1;rounded=0;exitX=1;exitY=0.75;exitDx=0;exitDy=0;" edge="1" parent="1" source="AM_tNluyqcjuR_lMav4c-11">
          <mxGeometry relative="1" as="geometry">
            <mxPoint x="590" y="282" as="sourcePoint" />
            <mxPoint x="750" y="282" as="targetPoint" />
          </mxGeometry>
        </mxCell>
        <mxCell id="AM_tNluyqcjuR_lMav4c-42" value="1" style="resizable=0;html=1;align=right;verticalAlign=bottom;" connectable="0" vertex="1" parent="AM_tNluyqcjuR_lMav4c-41">
          <mxGeometry x="1" relative="1" as="geometry" />
        </mxCell>
        <mxCell id="AM_tNluyqcjuR_lMav4c-43" value="" style="endArrow=none;html=1;rounded=0;exitX=1;exitY=0.75;exitDx=0;exitDy=0;" edge="1" parent="1" source="AM_tNluyqcjuR_lMav4c-7">
          <mxGeometry relative="1" as="geometry">
            <mxPoint x="590" y="279.5" as="sourcePoint" />
            <mxPoint x="750" y="279.5" as="targetPoint" />
          </mxGeometry>
        </mxCell>
        <mxCell id="AM_tNluyqcjuR_lMav4c-44" value="1" style="resizable=0;html=1;align=right;verticalAlign=bottom;" connectable="0" vertex="1" parent="AM_tNluyqcjuR_lMav4c-43">
          <mxGeometry x="1" relative="1" as="geometry" />
        </mxCell>
        <mxCell id="AM_tNluyqcjuR_lMav4c-45" value="include&lt;br&gt;" style="endArrow=open;endSize=12;dashed=1;html=1;rounded=0;entryX=0;entryY=0.75;entryDx=0;entryDy=0;exitX=0;exitY=0.75;exitDx=0;exitDy=0;" edge="1" parent="1" source="AM_tNluyqcjuR_lMav4c-11" target="AM_tNluyqcjuR_lMav4c-8">
          <mxGeometry width="160" relative="1" as="geometry">
            <mxPoint x="210" y="320" as="sourcePoint" />
            <mxPoint x="370" y="320" as="targetPoint" />
            <Array as="points">
              <mxPoint x="250" y="330" />
            </Array>
          </mxGeometry>
        </mxCell>
        <mxCell id="AM_tNluyqcjuR_lMav4c-47" value="include" style="endArrow=open;endSize=12;dashed=1;html=1;rounded=0;entryX=0.271;entryY=0.021;entryDx=0;entryDy=0;entryPerimeter=0;exitX=0;exitY=1;exitDx=0;exitDy=0;" edge="1" parent="1" source="AM_tNluyqcjuR_lMav4c-9" target="AM_tNluyqcjuR_lMav4c-2">
          <mxGeometry x="0.1425" width="160" relative="1" as="geometry">
            <mxPoint x="20" y="370" as="sourcePoint" />
            <mxPoint x="180" y="370" as="targetPoint" />
            <Array as="points">
              <mxPoint x="50" y="40" />
            </Array>
            <mxPoint as="offset" />
          </mxGeometry>
        </mxCell>
        <mxCell id="AM_tNluyqcjuR_lMav4c-48" value="include&lt;br&gt;" style="endArrow=open;endSize=12;dashed=1;html=1;rounded=0;entryX=0.1;entryY=1;entryDx=0;entryDy=0;entryPerimeter=0;exitX=0;exitY=0.5;exitDx=0;exitDy=0;" edge="1" parent="1" source="AM_tNluyqcjuR_lMav4c-8" target="AM_tNluyqcjuR_lMav4c-5">
          <mxGeometry x="0.0095" width="160" relative="1" as="geometry">
            <mxPoint x="70" y="374.5" as="sourcePoint" />
            <mxPoint x="230" y="374.5" as="targetPoint" />
            <Array as="points">
              <mxPoint x="20" y="130" />
            </Array>
            <mxPoint as="offset" />
          </mxGeometry>
        </mxCell>
      </root>
    </mxGraphModel>
  </diagram>
</mxfile>
